<svg width="24" height="24" viewBox="0 0 24 24" fill="none" xmlns="http://www.w3.org/2000/svg">
<path fill-rule="evenodd" clip-rule="evenodd" d="M15.8776 12.9859C15.9575 12.6705 16 12.3402 16 12C16 9.79086 14.2091 8 12 8C11.6598 8 11.3295 8.04248 11.0141 8.12241L15.8776 12.9859ZM8.57751 9.92846C8.21101 10.5327 8 11.2417 8 12C8 14.2091 9.79086 16 12 16C12.7583 16 13.4673 15.789 14.0715 15.4225L12.5674 13.9184C12.3875 13.9715 12.1971 14 12 14C10.8954 14 10 13.1046 10 12C10 11.8029 10.0285 11.6125 10.0816 11.4326L8.57751 9.92846Z" fill="#33363F"/>
<path fill-rule="evenodd" clip-rule="evenodd" d="M16.3741 17.7251L14.898 16.2489C13.9707 16.7128 12.9933 17 12 17C10.4742 17 8.98615 16.3224 7.65914 15.3677C6.34001 14.4186 5.26408 13.2558 4.58386 12.43C4.48409 12.3088 4.40957 12.2182 4.34784 12.1385C4.29898 12.0754 4.26785 12.0315 4.24755 12C4.26785 11.9685 4.29898 11.9246 4.34784 11.8615C4.40957 11.7818 4.48409 11.6912 4.58386 11.57C5.22628 10.7901 6.22165 9.70958 7.44149 8.79244L6.01504 7.36598C4.72758 8.3715 3.70046 9.49676 3.04009 10.2985C3.0165 10.3272 2.99192 10.3566 2.96661 10.3869L2.9666 10.3869C2.65317 10.7624 2.22973 11.2696 2.22973 12C2.22973 12.7304 2.65317 13.2376 2.9666 13.6131L2.96682 13.6133C2.99205 13.6435 3.01656 13.6729 3.04009 13.7015C3.77995 14.5998 4.98017 15.9041 6.49111 16.9912C7.99415 18.0725 9.89007 19 12 19C13.6089 19 15.0934 18.4607 16.3741 17.7251ZM8.64668 5.75499C9.6737 5.29882 10.8024 5 12 5C14.1099 5 16.0059 5.92747 17.5089 7.00885C19.0198 8.0959 20.2201 9.40025 20.9599 10.2985C20.9835 10.3272 21.0081 10.3566 21.0334 10.3869L21.0334 10.3869C21.3468 10.7624 21.7703 11.2696 21.7703 12C21.7703 12.7304 21.3468 13.2376 21.0334 13.6131C21.0081 13.6434 20.9835 13.6728 20.9599 13.7015C20.4502 14.3203 19.722 15.132 18.8241 15.9325L17.4073 14.5156C18.2419 13.7823 18.9301 13.0201 19.4161 12.43C19.5159 12.3088 19.5904 12.2182 19.6522 12.1385C19.701 12.0754 19.7322 12.0315 19.7525 12C19.7322 11.9685 19.701 11.9246 19.6522 11.8615C19.5904 11.7818 19.5159 11.6912 19.4162 11.57C18.7359 10.7442 17.66 9.58138 16.3409 8.63233C15.0139 7.6776 13.5258 7 12 7C11.3887 7 10.7835 7.10876 10.1922 7.30053L8.64668 5.75499Z" fill="#33363F"/>
<path d="M5 2.5L21 18.5" stroke="#33363F" stroke-width="2"/>
</svg>
