<svg width="24" height="24" viewBox="0 0 24 24" fill="none" xmlns="http://www.w3.org/2000/svg">
<path d="M3 11.5C2.72386 11.5 2.5 11.7239 2.5 12C2.5 12.2761 2.72386 12.5 3 12.5V11.5ZM15.3536 12.3536C15.5488 12.1583 15.5488 11.8417 15.3536 11.6464L12.1716 8.46447C11.9763 8.2692 11.6597 8.2692 11.4645 8.46447C11.2692 8.65973 11.2692 8.97631 11.4645 9.17157L14.2929 12L11.4645 14.8284C11.2692 15.0237 11.2692 15.3403 11.4645 15.5355C11.6597 15.7308 11.9763 15.7308 12.1716 15.5355L15.3536 12.3536ZM3 12.5L15 12.5V11.5L3 11.5V12.5Z" fill="#33363F"/>
<mask id="path-2-inside-1_7_2" fill="white">
<path fill-rule="evenodd" clip-rule="evenodd" d="M9 4H20V20H9H8V21H9H20H21V20V4V3H20H9H8V4H9Z"/>
</mask>
<path d="M20 4H21V3H20V4ZM20 20V21H21V20H20ZM8 20V19H7V20H8ZM8 21H7V22H8V21ZM21 21V22H22V21H21ZM21 3H22V2H21V3ZM8 3V2H7V3H8ZM8 4H7V5H8V4ZM20 3H9V5H20V3ZM21 20V4H19V20H21ZM9 21H20V19H9V21ZM9 19H8V21H9V19ZM7 20V21H9V20H7ZM8 22H9V20H8V22ZM9 22H20V20H9V22ZM20 22H21V20H20V22ZM22 21V20H20V21H22ZM22 20V4H20V20H22ZM22 4V3H20V4H22ZM21 2H20V4H21V2ZM20 2H9V4H20V2ZM9 2H8V4H9V2ZM7 3V4H9V3H7ZM8 5H9V3H8V5Z" fill="#33363F" mask="url(#path-2-inside-1_7_2)"/>
</svg>
