<svg width="18" height="18" viewBox="0 0 18 18" fill="none" xmlns="http://www.w3.org/2000/svg">
<path d="M3.17701 5.71942C3.49136 2.89032 5.88266 0.75 8.72917 0.75V0.75C11.5757 0.75 13.967 2.89032 14.2813 5.71942L14.5331 7.98563C14.5363 8.01452 14.5379 8.02897 14.5396 8.04326C14.6685 9.16695 15.0343 10.2505 15.6127 11.2225C15.6201 11.2349 15.6276 11.2473 15.6425 11.2722L16.2205 12.2356C16.7451 13.1099 17.0074 13.547 16.9508 13.9059C16.9131 14.1446 16.7902 14.3617 16.6048 14.5168C16.3263 14.75 15.8165 14.75 14.7969 14.75H2.6614C1.64185 14.75 1.13208 14.75 0.853505 14.5168C0.668143 14.3617 0.545254 14.1446 0.50758 13.9059C0.45096 13.547 0.713237 13.1099 1.23779 12.2356L1.81582 11.2722C1.83078 11.2473 1.83826 11.2349 1.84561 11.2225C2.42405 10.2505 2.78981 9.16695 2.91875 8.04326C2.92039 8.02897 2.922 8.01452 2.92521 7.98563L3.17701 5.71942Z" fill="#33363F"/>
<path d="M5.73001 14.75C5.73001 15.144 5.80761 15.5341 5.95837 15.8981C6.10914 16.262 6.33011 16.5927 6.60869 16.8713C6.88727 17.1499 7.21798 17.3709 7.58196 17.5216C7.94594 17.6724 8.33605 17.75 8.73001 17.75C9.12398 17.75 9.51408 17.6724 9.87806 17.5216C10.242 17.3709 10.5728 17.1499 10.8513 16.8713C11.1299 16.5927 11.3509 16.262 11.5016 15.8981C11.6524 15.5341 11.73 15.144 11.73 14.75L8.73001 14.75H5.73001Z" fill="#33363F"/>
</svg>
